<svg width="37" height="30" viewBox="0 0 37 30" fill="none" xmlns="http://www.w3.org/2000/svg">
<mask id="mask0_1_117" style="mask-type:luminance" maskUnits="userSpaceOnUse" x="0" y="0" width="37" height="30">
<path d="M31.9261 1.13793L5.62701 0.917889C3.15454 0.897202 1.13375 2.92473 1.11347 5.44649L0.957798 24.802C0.937515 27.3237 2.92541 29.3848 5.39789 29.4055L31.6969 29.6255C34.1694 29.6462 36.1902 27.6187 36.2105 25.0969L36.3661 5.74144C36.3864 3.21968 34.3985 1.15861 31.9261 1.13793Z" fill="white"/>
</mask>
<g mask="url(#mask0_1_117)">
<g style="mix-blend-mode:soft-light" opacity="0.5">
<path d="M26.907 29.5752L19.2919 29.5142L3.57175 0.897644L11.1808 0.958607L26.907 29.5752Z" fill="white"/>
</g>
<g style="mix-blend-mode:soft-light" opacity="0.5">
<path d="M12.0953 29.4533L4.48627 29.3923L-11.2399 0.775757L-3.62487 0.83672L12.0953 29.4533Z" fill="white"/>
</g>
<g style="mix-blend-mode:soft-light" opacity="0.75">
<path d="M37.5166 29.6666L23.6374 29.5508L7.91719 0.934204L21.7904 1.05004L37.5166 29.6666Z" fill="white"/>
</g>
<g style="mix-blend-mode:soft-light" opacity="0.75">
<path d="M59.9731 29.8556L46.0999 29.7398L30.3737 1.12323L44.2529 1.23297L59.9731 29.8556Z" fill="white"/>
</g>
</g>
</svg>
