<svg width="36" height="30" viewBox="0 0 36 30" fill="none" xmlns="http://www.w3.org/2000/svg">
<g style="mix-blend-mode:multiply" opacity="0.2">
<path d="M24.281 9.31058L11.9264 9.20721L11.8357 20.4852L24.1903 20.5886L24.281 9.31058Z" stroke="#8C8C8C" stroke-miterlimit="10"/>
<path d="M29.9754 5.06666L18.1348 4.96759L18.1003 9.25932L29.9409 9.35839L29.9754 5.06666Z" stroke="#8C8C8C" stroke-miterlimit="10"/>
<path d="M18.1356 4.96766L6.29507 4.86859L6.26056 9.16032L18.1011 9.25939L18.1356 4.96766Z" stroke="#8C8C8C" stroke-miterlimit="10"/>
<path d="M29.8442 20.6354L18.0036 20.5363L17.9691 24.828L29.8097 24.9271L29.8442 20.6354Z" stroke="#8C8C8C" stroke-miterlimit="10"/>
<path d="M18.0044 20.5363L6.16387 20.4373L6.12935 24.729L17.9699 24.8281L18.0044 20.5363Z" stroke="#8C8C8C" stroke-miterlimit="10"/>
<path d="M29.9494 9.35339L35.9984 9.40217" stroke="#8C8C8C" stroke-miterlimit="10"/>
<path d="M29.8598 20.6318L35.9087 20.6805" stroke="#8C8C8C" stroke-miterlimit="10"/>
<path d="M0.481541 9.10956L6.53053 9.15833" stroke="#8C8C8C" stroke-miterlimit="10"/>
<path d="M0.385895 20.3879L6.44085 20.4367" stroke="#8C8C8C" stroke-miterlimit="10"/>
<path d="M0.433731 14.7487L11.8862 14.8402" stroke="#8C8C8C" stroke-miterlimit="10"/>
<path d="M24.2351 14.9438L35.9565 15.0413" stroke="#8C8C8C" stroke-miterlimit="10"/>
<path d="M6.13601 24.7286L6.10613 28.8376" stroke="#8C8C8C" stroke-miterlimit="10"/>
<path d="M17.9829 24.826L17.9471 28.935" stroke="#8C8C8C" stroke-miterlimit="10"/>
<path d="M29.8239 24.9236L29.788 29.0326" stroke="#8C8C8C" stroke-miterlimit="10"/>
<path d="M12.0595 24.7773L12.0236 29.0874" stroke="#8C8C8C" stroke-miterlimit="10"/>
<path d="M24.1575 24.8749L24.1216 29.185" stroke="#8C8C8C" stroke-miterlimit="10"/>
<path d="M6.32731 0.751343L6.29742 4.86032" stroke="#8C8C8C" stroke-miterlimit="10"/>
<path d="M18.1742 0.848877L18.1384 4.96396" stroke="#8C8C8C" stroke-miterlimit="10"/>
<path d="M30.0151 0.946472L29.9853 5.06155" stroke="#8C8C8C" stroke-miterlimit="10"/>
<path d="M12.2507 0.80011L12.2149 5.11027" stroke="#8C8C8C" stroke-miterlimit="10"/>
<path d="M24.3487 0.903809L24.3129 5.21397" stroke="#8C8C8C" stroke-miterlimit="10"/>
</g>
</svg>
