<svg width="74" height="9" viewBox="0 0 74 9" fill="none" xmlns="http://www.w3.org/2000/svg">
<g style="mix-blend-mode:hard-light">
<path d="M6.18625 8.2891C5.55508 8.55086 4.87676 8.67344 4.19583 8.64879C2.07988 8.64879 0.483956 7.2832 0.483956 4.76538C0.453885 4.23024 0.534674 3.69465 0.721063 3.19348C0.907453 2.69231 1.19526 2.23681 1.56574 1.85664C1.93622 1.47647 2.38107 1.18017 2.8713 0.987023C3.36153 0.793879 3.88616 0.708227 4.41101 0.73565C5.02635 0.709836 5.63942 0.826558 6.20419 1.07705L5.9651 1.88787C5.48833 1.66869 4.96974 1.56041 4.44688 1.57086C2.6537 1.57086 1.51204 2.71698 1.51204 4.7349C1.51204 6.61259 2.57002 7.81968 4.39906 7.81968C4.94308 7.82938 5.48294 7.72133 5.98303 7.50267L6.18625 8.2891Z" fill="#E5E5E5"/>
<path d="M8.52336 0.967245C9.13879 0.855212 9.76315 0.802146 10.3883 0.80874C11.163 0.72438 11.9403 0.942182 12.564 1.41838C12.7592 1.60414 12.9135 1.83012 13.0165 2.08132C13.1196 2.33253 13.1691 2.60322 13.1617 2.87542C13.175 3.32317 13.0418 3.7627 12.7832 4.12474C12.5245 4.48677 12.1551 4.75074 11.7332 4.87505C12.0349 5.01082 12.2962 5.22556 12.4904 5.4975C12.6846 5.76944 12.8048 6.08891 12.8389 6.42353C12.9759 7.14149 13.176 7.84542 13.4367 8.5268H12.4146C12.1905 7.93486 12.0223 7.32243 11.9125 6.69787C11.6913 5.6371 11.3147 5.23473 10.4062 5.20425H9.49168V8.53289H8.51738L8.52336 0.967245ZM9.49168 4.46049H10.4839C11.5239 4.46049 12.1814 3.85085 12.1814 3.00345C12.1814 2.00973 11.4821 1.57689 10.454 1.56469C10.1308 1.55677 9.80786 1.58746 9.49168 1.65614V4.46049Z" fill="#E5E5E5"/>
<path d="M19.5394 4.94825H16.6166V7.71602H19.8801V8.53294H15.6423V0.869751H19.7068V1.69886H16.6166V4.13743H19.5394V4.94825Z" fill="#E5E5E5"/>
<path d="M22.2531 0.973386C22.9357 0.868343 23.625 0.815361 24.3153 0.81488C25.7139 0.81488 26.7062 1.14409 27.3637 1.77202C27.7251 2.12605 28.0074 2.55557 28.191 3.03117C28.3746 3.50677 28.4553 4.01723 28.4276 4.5276C28.4524 5.0736 28.3688 5.61909 28.1818 6.13135C27.9949 6.64361 27.7085 7.1121 27.3398 7.50874C26.4155 8.30888 25.2193 8.70534 24.0104 8.61219C23.4114 8.61853 22.8126 8.58799 22.2172 8.52075L22.2531 0.973386ZM23.2214 7.75869C23.5459 7.80761 23.8738 7.82801 24.2017 7.81966C26.2818 7.81966 27.4055 6.63696 27.4115 4.56418C27.4115 2.73525 26.4193 1.60132 24.3631 1.60132C23.98 1.59344 23.5971 1.62819 23.2214 1.70496V7.75869Z" fill="#E5E5E5"/>
<path d="M31.7749 0.875854V8.53295H30.8006V0.875854H31.7749Z" fill="#E5E5E5"/>
<path d="M36.0187 1.71716H33.7294V0.875854H39.3002V1.72326H36.999V8.53295H36.0128L36.0187 1.71716Z" fill="#E5E5E5"/>
<path d="M49.9936 8.30737C49.3628 8.57121 48.6845 8.69587 48.0031 8.67316C45.8812 8.67316 44.2853 7.30146 44.2913 4.78974C44.2603 4.25411 44.3405 3.71784 44.5265 3.21594C44.7125 2.71404 45.0001 2.25777 45.3707 1.87693C45.7413 1.49609 46.1864 1.19923 46.6771 1.00573C47.1678 0.812219 47.6929 0.726417 48.2183 0.753917C48.8342 0.728951 49.4475 0.847806 50.0115 1.10141L49.7784 1.90614C49.3014 1.68774 48.783 1.57949 48.2602 1.58913C46.467 1.58913 45.3253 2.73525 45.3194 4.75316C45.3194 6.63086 46.3833 7.83795 48.2124 7.83795C48.7564 7.84764 49.2962 7.7396 49.7963 7.52093L49.9936 8.30737Z" fill="#E5E5E5"/>
<path d="M53.5859 6.14314L52.8029 8.5817H51.7987L54.357 0.912415H55.5524L58.1167 8.5878H57.0766L56.2757 6.14923L53.5859 6.14314ZM56.0545 5.36889L55.3193 3.16199C55.152 2.66208 55.0384 2.20485 54.9308 1.75982C54.8172 2.21705 54.6977 2.68647 54.5483 3.1498L53.8131 5.36889H56.0545Z" fill="#E5E5E5"/>
<path d="M60.3223 0.991723C60.9377 0.87969 61.5621 0.826621 62.1872 0.833215C62.9619 0.748855 63.7392 0.966657 64.3629 1.44286C64.5581 1.62861 64.7124 1.85459 64.8154 2.1058C64.9185 2.35701 64.968 2.62769 64.9606 2.8999C64.9685 3.34353 64.8329 3.77745 64.5746 4.13452C64.3164 4.49158 63.95 4.75189 63.5321 4.87514V4.91172C63.8339 5.04749 64.0951 5.26223 64.2893 5.53417C64.4835 5.80611 64.6037 6.12558 64.6378 6.4602C64.7748 7.17816 64.9749 7.88208 65.2356 8.56347H64.2314C64.0071 7.97161 63.8389 7.35916 63.7293 6.73454C63.5081 5.67986 63.1316 5.2775 62.223 5.24702H61.3085V8.57566H60.3342L60.3223 0.991723ZM61.2906 4.48497H62.2828C63.3228 4.48497 63.9804 3.87533 63.9804 3.02792C63.9804 2.04031 63.281 1.60746 62.2529 1.59527C61.9296 1.58413 61.6063 1.61486 61.2906 1.68671V4.48497Z" fill="#E5E5E5"/>
<path d="M67.4412 0.991677C68.1257 0.886421 68.817 0.833437 69.5093 0.833169C70.6078 0.745337 71.6978 1.08759 72.5577 1.79031C72.9184 2.14464 73.1997 2.57437 73.3824 3.05C73.565 3.52564 73.6446 4.03593 73.6157 4.54588C73.641 5.09236 73.5583 5.63846 73.3724 6.15165C73.1865 6.66485 72.9013 7.13466 72.5338 7.53313C71.6067 8.32806 70.4126 8.7238 69.2045 8.63658C68.6155 8.63893 68.0268 8.60841 67.4412 8.54513V0.991677ZM68.4095 7.77698C68.7359 7.8261 69.0659 7.8465 69.3957 7.83795C71.4698 7.83795 72.5995 6.65524 72.5995 4.58246C72.5995 2.75354 71.6073 1.61961 69.5511 1.61961C69.17 1.61169 68.7892 1.64645 68.4155 1.72325L68.4095 7.77698Z" fill="#E5E5E5"/>
</g>
</svg>
